<?xml version="1.0" standalone="no"?>
<!DOCTYPE svg PUBLIC "-//W3C//DTD SVG 20010904//EN"
 "http://www.w3.org/TR/2001/REC-SVG-20010904/DTD/svg10.dtd">
<svg version="1.0" xmlns="http://www.w3.org/2000/svg"
 width="1024.000000pt" height="1024.000000pt" viewBox="0 0 1024.000000 1024.000000"
 preserveAspectRatio="xMidYMid meet">
<metadata>
Created by potrace 1.11, written by Peter Selinger 2001-2013
</metadata>
<g transform="translate(0.000000,1024.000000) scale(0.100000,-0.100000)"
fill="#000000" stroke="none">
<path d="M5128 9455 c-2 -2 -24 -5 -48 -7 -173 -10 -349 -163 -401 -348 -8
-29 -13 -133 -15 -290 -3 -254 -7 -328 -23 -420 -11 -63 -47 -178 -60 -194 -5
-6 -9 -14 -10 -19 0 -4 -15 -36 -33 -70 -44 -85 -198 -237 -303 -299 -136 -81
-301 -141 -445 -163 -227 -35 -462 27 -655 173 -33 25 -145 130 -250 232 -109
107 -209 197 -235 211 -79 41 -149 57 -246 54 -134 -4 -223 -43 -320 -140 -94
-93 -140 -198 -143 -326 -4 -164 34 -240 216 -426 208 -212 293 -303 293 -314
0 -5 8 -18 17 -28 50 -60 114 -209 139 -324 19 -93 19 -239 -1 -331 -13 -61
-67 -239 -74 -246 -4 -3 -26 -45 -50 -93 -112 -226 -291 -381 -519 -447 -112
-33 -212 -42 -487 -45 -158 -2 -291 -8 -320 -15 -211 -49 -366 -236 -365 -442
0 -96 0 -98 21 -166 25 -80 53 -125 115 -182 138 -128 194 -142 559 -145 289
-3 316 -5 443 -36 253 -62 441 -222 572 -488 132 -267 155 -521 71 -764 -50
-144 -132 -253 -372 -497 -160 -163 -186 -194 -218 -260 -33 -69 -36 -83 -38
-176 -4 -150 33 -246 134 -352 98 -102 197 -145 342 -147 169 -3 227 30 466
264 213 209 230 224 300 267 143 89 229 121 381 143 260 37 615 -89 834 -295
113 -107 189 -241 229 -404 28 -116 32 -166 35 -465 2 -243 4 -264 26 -325 31
-88 48 -114 122 -191 82 -85 200 -132 328 -130 211 2 377 123 445 324 22 67
24 87 25 307 2 308 3 333 26 454 39 208 201 439 381 544 66 39 210 113 215
111 2 0 17 5 33 11 132 51 334 77 450 58 27 -4 64 -10 80 -12 36 -5 144 -45
202 -75 115 -58 183 -115 413 -341 128 -125 191 -180 233 -201 31 -16 57 -27
57 -24 0 3 10 0 22 -6 36 -19 178 -20 249 -2 59 15 151 62 194 100 33 29 101
116 120 152 65 127 66 307 2 426 -31 57 -59 89 -247 280 -257 262 -339 396
-375 609 -58 356 126 791 418 990 79 53 162 90 262 115 118 30 164 33 455 37
146 1 272 5 280 7 8 2 30 7 49 11 120 28 251 130 306 237 53 102 67 268 31
366 -56 155 -178 267 -336 309 -52 13 -119 17 -335 19 -221 2 -342 8 -385 20
-3 1 -23 5 -45 10 -22 4 -55 14 -72 22 -18 7 -33 11 -33 8 0 -10 -144 67 -195
104 -153 110 -279 289 -351 497 -14 41 -27 83 -29 95 -2 11 -6 28 -9 37 -24
79 -27 273 -6 375 24 114 52 181 118 286 67 105 73 113 297 341 218 223 257
295 249 456 -9 167 -72 284 -206 381 -90 66 -148 85 -267 89 -89 2 -154 -12
-226 -49 -48 -24 -58 -33 -239 -212 -78 -77 -164 -160 -192 -184 -52 -47 -163
-122 -210 -143 -16 -7 -31 -15 -34 -18 -12 -14 -182 -61 -243 -69 -92 -10
-227 -4 -286 13 -9 3 -29 7 -44 10 -100 17 -283 99 -402 179 -52 35 -195 167
-195 180 0 3 -18 31 -40 64 -72 108 -125 277 -135 427 -2 34 -4 169 -5 301 -3
314 -19 370 -141 495 -84 85 -157 124 -254 136 -22 3 -50 7 -62 9 -12 2 -23 2
-25 0z m-360 -3000 c254 -50 476 -238 581 -489 41 -98 58 -194 56 -316 -2
-112 -10 -160 -40 -249 -86 -255 -300 -456 -560 -527 -70 -19 -276 -27 -350
-13 -175 31 -316 106 -439 232 -162 166 -230 336 -229 572 0 187 41 319 141
460 195 275 504 396 840 330z m1288 -1756 c101 -26 215 -119 259 -214 29 -60
43 -170 33 -245 -22 -147 -139 -281 -283 -323 -60 -17 -184 -16 -240 3 -126
41 -235 158 -267 285 -48 189 42 383 217 469 70 35 197 46 281 25z"/>
</g>
</svg>
